<?xml version="1.0" encoding="utf-8"?><!-- Uploaded to: SVG Repo, www.svgrepo.com, Generator: SVG Repo Mixer Tools -->
<svg width="800px" height="800px" viewBox="0 0 24 24" fill="none" xmlns="http://www.w3.org/2000/svg">
<path d="M13.6667 8.99988L12 11.9999M12 11.9999L10.3333 8.99988M12 11.9999H9.5M12 11.9999H14.5M12 11.9999L10.3333 14.9999M12 11.9999L13.6667 14.9999M6.16667 8.99994L4.5 11.9999M4.5 11.9999L2.83333 8.99994M4.5 11.9999H2M4.5 11.9999H7M4.5 11.9999L2.83333 14.9999M4.5 11.9999L6.16667 14.9999M21.1667 8.99994L19.5 11.9999M19.5 11.9999L17.8333 8.99994M19.5 11.9999H17M19.5 11.9999H22M19.5 11.9999L17.8333 14.9999M19.5 11.9999L21.1667 14.9999" stroke="#000000" stroke-width="2" stroke-linecap="round" stroke-linejoin="round"/>
</svg>